<svg width="218" height="81" viewBox="0 0 218 81" fill="none" xmlns="http://www.w3.org/2000/svg">
    <path
        d="M45.6148 80.3244C65.4386 80.3244 81.0041 59.2454 89.6291 43.8226C95.6787 42.8089 98.1499 42.154 103.191 39.2274C97.3591 44.3892 96.2525 49.1402 92.7158 52.6957C90.7565 54.6651 90.1704 54.8353 89.3416 54.9424C89.3416 54.9424 89.3085 55.1279 89.3072 55.1138C90.8632 56.0333 93.3411 55.9497 95.8025 54.723C98.522 53.3663 100.203 51.8328 101.268 48.6256C102.369 45.9382 102.767 41.2027 104.773 39.3366C105.93 38.261 108.267 38.1785 109.722 36.041C111.377 33.6113 109.119 31.3063 107.018 34.0449C106.128 35.2041 105.208 36.8935 103.91 37.5849C100.332 39.4874 97.6019 41.1715 90.4199 42.0188C96.3555 30.6454 101.765 20.8237 105.766 16.0076C108.575 12.6268 109.821 11.5309 111.735 10.1296C111.694 10.0772 111.622 9.96313 111.589 9.92578C106.782 12.4315 94.1166 19.9477 82.5759 43.256C70.4767 45.5067 65.3412 50.3222 60.4357 57.2212C55.3944 65.4548 56.5679 74.8406 56.5679 74.8406L56.9279 74.6603C56.9279 69.1066 58.0164 62.5685 61.2371 57.9614C63.7914 54.3071 68.347 47.7627 81.5681 44.9453C75.0734 56.5423 64.8771 79.3315 45.6116 79.3315C39.981 79.3315 36.2484 77.3345 36.2484 74.3334C36.2484 72.3751 38.6553 71.7838 39.0604 69.5844C39.4656 67.385 37.6632 65.3193 35.5858 64.9323C33.0631 64.4619 30.772 66.3301 30.2446 69.2103C29.2259 74.7462 34.9826 80.3244 45.6148 80.3244Z"
        fill="#E51516" />
    <path
        d="M54.0329 47.6735C79.6583 47.6735 88.9025 17.737 88.9025 13.0323L88.5524 13.1538C88.0828 14.5816 86.6722 17.6585 84.3273 21.5426C77.2698 34.0441 63.5883 45.8645 53.2729 45.8645C48.0609 45.8645 43.3919 43.0944 43.3919 37.0975C43.3919 22.2045 64.5293 3.62588 94.5965 2.85136C108.407 2.4927 111.82 9.23872 122.223 9.23872C133.531 9.23872 139.56 1.66441 140.067 0.193344L139.891 0.0396983C138.224 0.840566 136.575 2.11593 128.338 2.92683C118.819 3.86769 114.609 1.67017 109.434 0.869663C89.7491 -2.17642 73.1078 3.67264 62.7668 8.87072C54.94 12.8068 47.7501 18.9072 44.2745 27.1048C41.9798 32.517 40.2072 40.462 45.4218 44.7336C47.7359 46.6292 50.9442 47.6631 54.0278 47.6631V47.6735H54.0329Z"
        fill="#E51516" />
    <path
        d="M195.367 11.4336L211.555 51.404C213.709 56.679 215.046 60.1708 217.422 62.8454V63.0681H207.323V62.8454C208.585 60.2451 207.842 56.5304 205.912 51.6269L203.981 46.8721H181.331L179.401 51.7755C177.544 56.6047 176.801 60.1708 178.212 62.8454V63.0681H169.227V62.8454C171.826 60.1708 173.162 56.5304 175.093 51.7013L190.911 11.4336H195.367ZM192.396 18.4916L182.817 42.9345H202.422L192.693 18.4916H192.396Z"
        fill="black" />
    <path
        d="M123.423 51.4784V23.0235C123.423 17.1543 122.903 14.2568 121.047 11.6565V11.4336H138.721C155.504 11.4336 166.494 21.6862 166.494 37.2138C166.494 52.8157 155.504 63.0681 138.721 63.0681H121.047V62.8454C123.126 60.3194 123.423 57.0504 123.423 51.4784ZM128.77 15.2226V59.205H137.458C151.494 59.205 160.553 51.4784 160.553 37.2138C160.553 23.0979 151.494 15.2226 137.458 15.2226H128.77Z"
        fill="black" />
    <path
        d="M26.3313 63.8119C11.999 63.8119 0.0429688 53.7822 0.0429688 37.2889C0.0429688 20.9441 12.4445 10.6914 26.5541 10.6914C32.6435 10.6914 37.3219 12.103 41.5548 14.4804V21.9099H41.2577C37.916 17.1551 32.5692 14.7033 26.7769 14.7033C15.2664 14.7033 5.90957 23.4701 5.90957 36.8431C5.90957 50.8847 15.2664 59.0571 27.4452 59.0571C33.3118 59.0571 38.2873 57.1255 43.2628 53.2622L44.0054 56.3826C39.3269 61.2117 33.4603 63.8119 26.3313 63.8119Z"
        fill="black" />
</svg>